<svg width="176" height="35" viewBox="0 0 176 35" fill="none" xmlns="http://www.w3.org/2000/svg">
<g id="wallet-01.svg" clip-path="url(#clip0_1_862)">
<path id="Vector" fill-rule="evenodd" clip-rule="evenodd" d="M1.8 11.9723L0.634277 6.24965L2.43611 0.950928L13.7754 5.18997L23.1011 5.18991L34.3357 1.02896L34.4403 0.950928L34.4521 0.985827L34.5464 0.950928L34.4615 1.01331L36.2418 6.24965L35.0761 11.9723L35.9239 12.5022L34.7582 13.3499L35.606 13.9858L34.4403 15.0455L35.1821 15.4694L33.5923 17.377L36.0296 24.9012H29.5651L27.339 24.9554L29.4593 25.0072L25.8408 30.3831L25.8563 30.518L21.5114 32.5313V31.2596L21.0874 28.1865L25.1338 25.0738L25.1173 24.928L25.1147 25.0072L21.0308 28.1487L21.0874 28.1865L21.4053 31.2597L21.0874 30.9418H15.7887L15.6109 31.1195L15.594 31.2427L15.7889 31.0476H21.0877L21.4056 31.3655V32.6372L25.8563 30.518L24.3729 31.7895L21.1937 33.909H15.7889L12.7157 31.7895L11.1256 30.5178L15.4711 32.6372V32.5868L11.1256 30.5178L11.7519 25.0937L11.7419 25.0739L11.1256 30.5178L3.17759 32.7433L0.95213 25.0072L7.41657 24.9012L7.48546 25.0055L9.58975 24.9542L7.41657 24.9012H0.95213L3.36485 17.4532L1.8 15.5754L2.54182 15.0455L1.3761 13.9858L2.22389 13.3499L1.05818 12.5022L1.8 11.9723ZM8.47669 18.5428L16.2065 18.8561L16.2121 18.9624L8.53135 18.651L8.47669 18.5428ZM20.3453 21.51V27.7454L20.5578 18.9672L21.2996 22.9932L21.4 22.9638L21.4231 22.9568L25.2206 21.828L25.1182 24.9013L25.2237 24.9039L25.3262 21.8278L22.5712 20.5563L22.5521 20.5963L22.4651 20.5562L21.376 22.8334L20.6637 18.9666L28.3985 18.6531L28.5054 18.5426L26.2841 15.2636L28.3998 18.6488L20.5578 18.9672L20.5567 18.9735L20.3453 21.51ZM11.7583 25.007L11.7616 25.0071L11.7591 25.0314L11.7583 25.007ZM11.759 24.9226L11.7616 25.0071L11.7581 25.0004L11.7563 24.9464L11.759 24.9226ZM8.58947 18.7653L8.58553 18.7577L11.6559 21.828L11.7583 24.9012L11.7548 24.9014L11.6559 21.934L8.58947 18.7653ZM11.6559 21.828L14.4112 20.5562L15.5769 22.9936L11.6559 21.828ZM21.197 10.7607L27.4689 6.15178L21.24 10.7987L21.197 10.7607ZM15.8947 28.1865L11.1279 30.5169L15.8719 28.3512L15.8947 28.1865Z" fill="#F5841F"/>
<path id="Vector_2" d="M25.8562 30.5179L29.565 24.9011L36.0294 25.0071L33.8039 32.7433L25.8562 30.5179Z" fill="#F5841F"/>
<path id="Vector_3" d="M55.0809 9.32286H52.8555C52.8555 9.32286 52.7495 9.32286 52.7495 9.42886L50.842 15.6813C50.842 15.7873 50.736 15.7873 50.63 15.6813L48.7225 9.42886C48.7225 9.42886 48.7225 9.32286 48.6165 9.32286H45.3313C45.3313 9.32286 45.2253 9.32286 45.2253 9.42886V25.325C45.2253 25.325 45.2253 25.431 45.3313 25.431H47.6627C47.6627 25.431 47.7687 25.431 47.7687 25.325V13.138C47.7687 13.032 47.8747 13.032 47.9807 13.138L49.8882 19.3904L49.9941 19.8144C49.9941 19.8144 49.9942 19.9203 50.1002 19.9203H51.9017C51.9017 19.9203 52.0077 19.9203 52.0077 19.8144L52.1136 19.3904L54.0212 13.138C54.0212 13.032 54.2331 13.032 54.2331 13.138V25.219C54.2331 25.219 54.2331 25.325 54.3391 25.325H56.6706C56.6706 25.325 56.7765 25.325 56.7765 25.219V9.32286C56.7765 9.32286 56.7765 9.21692 56.6706 9.21692H55.0809V9.32286Z" fill="white"/>
<path id="Vector_4" d="M64.7424 22.8876V18.0128C64.7424 18.0128 64.7424 17.9068 64.8483 17.9068H70.9946C70.9946 17.9068 71.101 17.9068 71.101 17.8008V15.7873C71.101 15.7873 71.101 15.6813 70.9946 15.6813H64.8483C64.8483 15.6813 64.7424 15.6813 64.7424 15.5754V11.3364C64.7424 11.3364 64.7424 11.2304 64.8483 11.2304H71.8425C71.8425 11.2304 71.9489 11.2304 71.9489 11.1245V9.32286C71.9489 9.32286 71.9489 9.21692 71.8425 9.21692H62.4109C62.4109 9.21692 62.3049 9.21692 62.3049 9.32286V25.0071C62.3049 25.0071 62.3049 25.1131 62.4109 25.1131H72.0546C72.0546 25.1131 72.1604 25.1131 72.1604 25.0071V22.8876C72.1604 22.8876 72.1604 22.7817 72.0546 22.7817L64.7424 22.8876Z" fill="white"/>
<path id="Vector_5" d="M88.6044 9.21692H77.7951C77.7951 9.21692 77.6887 9.21692 77.6887 9.32286V11.3364C77.6887 11.3364 77.6887 11.4423 77.7951 11.4423H82.034V25.219C82.034 25.219 82.034 25.325 82.1397 25.325H84.4713C84.4713 25.325 84.577 25.325 84.577 25.219V11.4423H88.8166C88.8166 11.4423 88.9223 11.4423 88.9223 11.3364L88.6044 9.21692Z" fill="white"/>
<path id="Vector_6" d="M104.2 25.325H106.32C106.425 25.325 106.425 25.219 106.425 25.219L102.08 9.32286C102.08 9.32286 102.08 9.21692 101.975 9.21692H98.9014C98.9014 9.21692 98.795 9.21692 98.795 9.32286L94.4504 25.219C94.4504 25.325 94.4504 25.325 94.5562 25.325H96.6756C96.6756 25.325 96.782 25.325 96.782 25.219L98.0535 20.5562C98.0535 20.5562 98.0535 20.4502 98.1593 20.4502H102.822C102.822 20.4502 102.928 20.4502 102.928 20.5562L104.2 25.325C104.094 25.325 104.094 25.325 104.2 25.325ZM98.6893 18.3307L100.385 12.1842C100.385 12.0782 100.491 12.0782 100.597 12.1842L102.292 18.3307C102.292 18.4367 102.292 18.4367 102.187 18.4367H98.795C98.6893 18.4367 98.6893 18.3307 98.6893 18.3307Z" fill="white"/>
<path id="Vector_7" d="M119.69 9.32286C119.584 9.32286 119.584 9.32286 119.69 9.32286L117.676 15.5754C117.676 15.6813 117.571 15.6813 117.464 15.5754L115.557 9.32286C115.557 9.32286 115.557 9.21692 115.451 9.21692H112.06C112.06 9.21692 111.954 9.21692 111.954 9.32286V25.219C111.954 25.219 111.954 25.325 112.06 25.325H114.391C114.391 25.325 114.497 25.325 114.497 25.219V13.138C114.497 13.032 114.603 13.032 114.709 13.138L116.617 19.3904L116.723 19.8144C116.723 19.8144 116.723 19.9203 116.828 19.9203H118.63C118.63 19.9203 118.736 19.9203 118.736 19.8144L118.842 19.3904L120.749 13.138C120.749 13.032 120.962 13.032 120.962 13.138V25.219C120.962 25.219 120.962 25.325 121.067 25.325H123.399C123.399 25.325 123.505 25.325 123.505 25.219V9.32286C123.505 9.32286 123.505 9.21692 123.399 9.21692H119.69V9.32286Z" fill="white"/>
<path id="Vector_8" d="M138.783 25.325H140.902C141.009 25.325 141.009 25.219 141.009 25.219L136.663 9.32286C136.663 9.32286 136.663 9.21692 136.558 9.21692H133.485C133.485 9.21692 133.378 9.21692 133.378 9.32286L129.034 25.219C129.034 25.325 129.034 25.325 129.139 25.325H131.259C131.259 25.325 131.365 25.325 131.365 25.219L132.637 20.5562C132.637 20.5562 132.637 20.4502 132.743 20.4502H137.406C137.406 20.4502 137.511 20.4502 137.511 20.5562L138.783 25.325ZM133.378 18.3307L135.074 12.1842C135.074 12.0782 135.18 12.0782 135.286 12.1842L136.981 18.3307C136.981 18.4367 136.981 18.4367 136.876 18.4367H133.485C133.378 18.4367 133.378 18.3307 133.378 18.3307Z" fill="white"/>
<path id="Vector_9" d="M154.803 17.5889C153.849 16.9531 152.79 16.5292 151.835 15.9993C151.2 15.6813 150.564 15.3635 149.928 14.8336C148.974 14.0917 149.187 12.5021 150.14 11.8663C151.517 10.9125 153.849 11.4424 154.167 13.3499C154.167 13.3499 154.167 13.4559 154.273 13.4559H156.393C156.498 13.4559 156.498 13.4559 156.498 13.3499C156.393 12.0782 155.863 10.9125 154.909 10.2766C154.061 9.6408 153.001 9.21692 151.942 9.21692C146.325 9.21692 145.795 15.1514 148.868 16.9531C149.187 17.165 152.153 18.6487 153.213 19.2845C154.273 19.9203 154.591 21.086 154.167 22.0398C153.743 22.8876 152.683 23.5235 151.624 23.4175C150.458 23.3115 149.504 22.6756 149.187 21.7219C149.08 21.5099 149.08 21.1921 149.08 21.086C149.08 21.086 149.08 20.9801 148.974 20.9801H146.643C146.643 20.9801 146.537 20.9801 146.537 21.086C146.537 22.7817 146.961 23.6294 148.127 24.4773C149.187 25.325 150.352 25.643 151.517 25.643C154.697 25.643 156.286 23.8414 156.604 22.0398C156.922 20.2383 156.393 18.6487 154.803 17.5889Z" fill="white"/>
<path id="Vector_10" d="M174.832 25.1131L166.883 16.9531V16.8471L174.09 9.42886C174.196 9.32286 174.09 9.32286 173.984 9.32286H171.017C171.017 9.32286 171.017 9.32286 170.911 9.32286L164.87 15.5754C164.764 15.6813 164.764 15.5754 164.764 15.4694V9.32286C164.764 9.32286 164.764 9.21692 164.658 9.21692H162.327C162.327 9.21692 162.221 9.21692 162.221 9.32286V25.219C162.221 25.219 162.221 25.325 162.327 25.325H164.658C164.658 25.325 164.764 25.325 164.764 25.219V18.2247C164.764 18.1188 164.87 18.1188 164.87 18.1188L171.759 25.219C171.759 25.219 171.759 25.219 171.864 25.219H174.832C174.832 25.219 174.938 25.1131 174.832 25.1131Z" fill="white"/>
</g>
<defs>
<clipPath id="clip0_1_862">
<rect width="174.834" height="33.17" fill="white" transform="translate(0.52832 0.844971)"/>
</clipPath>
</defs>
</svg>
