<svg width="171" height="43" viewBox="0 0 171 43" fill="none" xmlns="http://www.w3.org/2000/svg">
<g id="wallet-04.svg" clip-path="url(#clip0_1_891)">
<path id="Vector" d="M14.8696 14.7033C16.8467 14.5539 19.7722 14.0157 22.616 12.1342C25.4641 14.0185 28.3949 14.5555 30.376 14.704C30.2843 18.3242 30.1046 20.9164 29.8175 22.8253C29.478 25.0834 29.0152 26.181 28.5407 26.8404C28.0771 27.4847 27.4607 27.9205 26.2412 28.5945C26.0484 28.7011 25.8428 28.8124 25.6253 28.9302L25.624 28.9308C24.7854 29.3851 23.7685 29.9359 22.616 30.6814C21.4654 29.937 20.4504 29.3868 19.6133 28.9329C19.3943 28.8143 19.1875 28.7022 18.9937 28.595C17.776 27.9213 17.1616 27.4858 16.6995 26.8423C16.2263 26.183 15.7647 25.0852 15.4263 22.8263C15.1402 20.917 14.9612 18.3241 14.8696 14.7033Z" fill="#009FE8"/>
<path id="Vector_2" fill-rule="evenodd" clip-rule="evenodd" d="M15.2537 0H29.2654C37.1754 0 43.5877 6.41231 43.5877 14.3223V28.334C43.5877 36.244 37.1754 42.6563 29.2654 42.6563H15.2537C7.34371 42.6563 0.931396 36.244 0.931396 28.334V14.3223C0.931396 6.41231 7.34371 0 15.2537 0ZM23.9592 7.91638C23.1814 7.26677 22.0502 7.26677 21.2724 7.91638C18.0719 10.5896 14.4203 10.5717 12.9325 10.5644C12.8608 10.564 12.7941 10.5637 12.7328 10.5637C12.1715 10.5637 11.6337 10.7888 11.2398 11.1887C10.846 11.5886 10.6289 12.1297 10.6374 12.691C10.7093 17.4572 10.8995 20.9003 11.2812 23.4474C11.6624 25.9917 12.2613 27.847 13.2947 29.2865C14.3394 30.7417 15.6779 31.5506 16.9646 32.2625C17.1937 32.3891 17.4247 32.5146 17.6592 32.642C18.7732 33.2469 19.9657 33.8945 21.3943 34.9194C22.1244 35.4431 23.1072 35.4431 23.8374 34.9194C25.2673 33.8936 26.4614 33.2457 27.5772 32.6402C27.8105 32.5137 28.0405 32.3888 28.2685 32.2629C29.5561 31.5513 30.8961 30.7429 31.9427 29.2884C32.9784 27.849 33.5794 25.9936 33.9621 23.4485C34.3453 20.9008 34.5363 17.4574 34.6082 12.691C34.6167 12.1297 34.3996 11.5886 34.0058 11.1887C33.6119 10.7888 33.074 10.5637 32.5128 10.5637C32.4508 10.5637 32.3834 10.564 32.3111 10.5644C30.811 10.5716 27.1596 10.5894 23.9592 7.91638Z" fill="#009FE8"/>
<path id="Vector_3" d="M57.8963 17.1729H53.2656V14.4437H65.8757V17.1729H61.2449V28.9151H57.8963V17.1729ZM69.0481 19.2608C69.4338 18.7232 69.9509 18.3165 70.5983 18.0408C71.2598 17.7654 72.0175 17.6274 72.8719 17.6274V20.6046C72.5145 20.5768 72.2733 20.563 72.1488 20.563C71.2253 20.563 70.5022 20.8249 69.9781 21.3487C69.4544 21.8586 69.1925 22.6303 69.1925 23.664V28.9151H65.9677V17.7927H69.0481V19.2608ZM84.8354 17.7927V28.9151H81.7751V27.5918C81.3478 28.074 80.8384 28.4462 80.2452 28.7082C79.6528 28.9562 79.012 29.0804 78.3228 29.0804C76.8621 29.0804 75.7048 28.6599 74.8504 27.8193C73.996 26.9787 73.5688 25.7314 73.5688 24.0774V17.7927H76.7929V23.6019C76.7929 25.3935 77.5444 26.2895 79.0465 26.2895C79.818 26.2895 80.4388 26.0415 80.9075 25.545C81.3755 25.0351 81.6098 24.2843 81.6098 23.2918V17.7927H84.8354ZM90.3242 29.0804C89.4007 29.0804 88.4979 28.97 87.6165 28.7497C86.7337 28.5151 86.0313 28.2259 85.5073 27.8814L86.5823 25.566C87.0786 25.8828 87.678 26.1447 88.381 26.3512C89.0841 26.5443 89.7726 26.6408 90.448 26.6408C91.8126 26.6408 92.4949 26.3034 92.4949 25.6277C92.4949 25.3109 92.3082 25.0834 91.937 24.9457C91.5644 24.8081 90.9927 24.6906 90.2206 24.594C89.3115 24.4564 88.5601 24.2977 87.9676 24.119C87.3745 23.9398 86.8581 23.6225 86.4171 23.1679C85.9899 22.713 85.7762 22.0655 85.7762 21.2244C85.7762 20.5219 85.976 19.9016 86.3756 19.364C86.789 18.8125 87.3814 18.3853 88.1536 18.0823C88.9389 17.7793 89.8625 17.6274 90.9236 17.6274C91.7096 17.6274 92.488 17.7172 93.2595 17.8964C94.0455 18.0617 94.6932 18.2959 95.2034 18.5989L94.1277 20.8937C93.1496 20.3427 92.0815 20.067 90.9236 20.067C90.2344 20.067 89.718 20.1635 89.373 20.3561C89.0288 20.5492 88.8566 20.7972 88.8566 21.1006C88.8566 21.4452 89.0426 21.6861 89.4145 21.8241C89.7864 21.9618 90.3796 22.0928 91.1925 22.217C92.1022 22.3685 92.8461 22.5338 93.4247 22.7131C94.004 22.8784 94.5066 23.1885 94.9338 23.6435C95.361 24.0979 95.5746 24.7321 95.5746 25.545C95.5746 26.2341 95.3686 26.8477 94.9552 27.3849C94.5411 27.9225 93.9349 28.343 93.1357 28.646C92.3504 28.9356 91.413 29.0804 90.3242 29.0804ZM103.498 28.3774C103.181 28.6116 102.788 28.7908 102.32 28.9151C101.865 29.025 101.382 29.0804 100.873 29.0804C99.5495 29.0804 98.5229 28.7426 97.7923 28.0673C97.0754 27.392 96.7173 26.3994 96.7173 25.0905V20.5219H95.0015V18.0408H96.7173V15.333H99.9422V18.0408H102.712V20.5219H99.9422V25.0489C99.9422 25.5178 100.06 25.8828 100.293 26.1448C100.542 26.3927 100.886 26.517 101.328 26.517C101.837 26.517 102.271 26.3789 102.63 26.1032L103.498 28.3774ZM130.781 14.4437L126.047 28.9151H122.451L119.266 19.116L115.979 28.9151H112.403L107.649 14.4437H111.122L114.388 24.615L117.799 14.4437H120.899L124.207 24.6977L127.577 14.4437H130.781ZM134.841 17.6274C136.564 17.6274 137.887 18.0408 138.811 18.868C139.734 19.6809 140.195 20.9143 140.195 22.5682V28.9151H137.177V27.5296C136.572 28.5633 135.441 29.0804 133.787 29.0804C132.933 29.0804 132.189 28.9356 131.554 28.646C130.934 28.3569 130.458 27.9569 130.128 27.447C129.797 26.9371 129.632 26.3584 129.632 25.7104C129.632 24.6772 130.018 23.8638 130.79 23.2712C131.575 22.6786 132.781 22.3824 134.407 22.3824H136.971C136.971 21.6794 136.757 21.1418 136.33 20.7699C135.902 20.3838 135.262 20.1908 134.407 20.1908C133.815 20.1908 133.229 20.2873 132.65 20.4803C132.085 20.6595 131.603 20.9076 131.203 21.2244L130.045 18.9712C130.651 18.544 131.375 18.2133 132.216 17.979C133.07 17.7445 133.946 17.6274 134.841 17.6274ZM134.593 26.9094C135.145 26.9094 135.634 26.7856 136.061 26.5376C136.489 26.2757 136.791 25.8967 136.971 25.4007V24.2633H134.758C133.436 24.2633 132.774 24.6977 132.774 25.566C132.774 25.9794 132.933 26.3101 133.249 26.5581C133.58 26.7923 134.028 26.9094 134.593 26.9094ZM141.874 13.5758H145.099V28.9151H141.874V13.5758ZM146.852 13.5758H150.077V28.9151H146.852V13.5758ZM162.724 23.395C162.724 23.4366 162.704 23.7262 162.662 24.2633H154.248C154.4 24.9524 154.758 25.4968 155.323 25.8967C155.888 26.2962 156.591 26.496 157.432 26.496C158.011 26.496 158.521 26.4133 158.962 26.248C159.416 26.0688 159.837 25.7935 160.222 25.4212L161.938 27.2817C160.891 28.4806 159.361 29.0804 157.349 29.0804C156.095 29.0804 154.985 28.8391 154.02 28.3569C153.056 27.8604 152.312 27.1784 151.788 26.3101C151.264 25.4418 151.002 24.4564 151.002 23.3539C151.002 22.2653 151.257 21.2865 151.768 20.4183C152.292 19.5365 153.001 18.8541 153.897 18.3719C154.806 17.8754 155.819 17.6274 156.936 17.6274C158.024 17.6274 159.01 17.862 159.892 18.3304C160.774 18.7991 161.463 19.4744 161.959 20.3561C162.469 21.2244 162.724 22.2375 162.724 23.395ZM156.956 20.067C156.226 20.067 155.612 20.2734 155.117 20.6872C154.62 21.1006 154.317 21.6655 154.206 22.3824H159.685C159.575 21.6794 159.271 21.1212 158.775 20.7078C158.279 20.2806 157.673 20.067 156.956 20.067ZM170.804 28.3774C170.487 28.6116 170.094 28.7908 169.626 28.9151C169.171 29.025 168.689 29.0804 168.179 29.0804C166.856 29.0804 165.829 28.7426 165.098 28.0673C164.381 27.392 164.023 26.3994 164.023 25.0905V20.5219H162.308V18.0408H164.023V15.333H167.248V18.0408H170.019V20.5219H167.248V25.0489C167.248 25.5178 167.365 25.8828 167.599 26.1448C167.848 26.3927 168.192 26.517 168.634 26.517C169.143 26.517 169.577 26.3789 169.936 26.1032L170.804 28.3774Z" fill="white"/>
</g>
<defs>
<clipPath id="clip0_1_891">
<rect width="170.057" height="42.86" fill="white" transform="translate(0.931396)"/>
</clipPath>
</defs>
</svg>
