<svg xmlns="http://www.w3.org/2000/svg" width="207" height="43" viewBox="0 0 207 43" fill="none">
  <path d="M42.789 25.4941H40.9081C39.7796 25.4941 43.6249 30.7217 46.4045 31.3093C47.0314 31.4309 47.3449 31.7348 47.3449 32.3224V36.152C47.324 36.8814 46.8851 37.2259 46.1537 37.1245C40.8454 36.2735 36.9792 33.5179 34.5758 28.8373C34.2205 28.1687 33.9489 27.4798 33.7399 26.7504C33.3428 25.5549 33.301 25.4941 31.9844 25.4536C30.3543 25.413 29.2885 24.6026 28.9332 23.164C28.5361 21.543 29.8527 19.841 31.6082 19.7397C31.859 19.7194 32.0889 19.7194 32.3397 19.7397C33.092 19.8004 33.4891 19.3952 33.6772 18.7468C34.137 17.1258 34.8684 15.5859 35.8506 14.2081C36.6657 13.0532 37.0837 13.0126 38.1077 13.965C38.8809 14.6944 39.6333 15.4644 40.4066 16.1938C40.9081 16.6598 41.0335 17.1664 40.5946 17.7337C40.3648 18.0376 40.1767 18.3618 40.0095 18.7063C39.6542 19.4155 39.8423 19.7194 40.6573 19.7194C42.0784 19.7397 43.4787 19.7194 44.9207 19.7194C46.4254 19.7397 47.533 20.6312 47.8883 22.0901C48.16 23.2653 47.4912 24.7039 46.1955 25.1699C45.4431 25.4536 44.5445 25.413 43.7085 25.4738C43.416 25.5144 43.1025 25.4941 42.789 25.4941Z" fill="#007EA4"/>
  <path d="M49.0585 7.96728C53.9697 8.1699 58.2957 10.5203 61.2633 15.1198C62.2874 16.7205 61.9948 18.1996 60.5319 19.0709C58.9645 20.0434 57.209 19.6382 56.2268 18.0983C54.743 15.7682 52.6531 14.289 49.8736 13.7825C47.6583 13.3975 45.3595 13.8027 43.4368 14.9577C42.5591 15.4845 42.2874 15.4237 41.5559 14.7145L39.2153 12.4452C38.5465 11.7563 38.5674 11.2902 39.3616 10.7229C41.8485 8.96012 45.255 7.90649 49.0585 7.96728ZM49.2675 34.2268V32.2817C49.2257 31.8359 49.5392 31.451 49.999 31.3902C52.7994 30.8228 54.8683 29.3032 56.3312 26.9528C56.9791 25.8992 58.0031 25.4939 59.2153 25.6763C60.3229 25.8384 61.1797 26.3854 61.6604 27.3985C61.9739 28.0672 61.9321 28.8372 61.5768 29.4855C59.3406 33.5987 55.2236 36.4151 50.4796 37.0838C49.6646 37.1851 49.2884 36.9014 49.2675 36.1112C49.2466 35.5034 49.2675 34.8752 49.2675 34.2268Z" fill="#1AA64A"/>
  <path d="M72.3399 16.7003V29.8098H69.7693V16.7003H65.5896V14.6133H76.4778V16.7003H72.3399Z" fill="#007EA4"/>
  <path d="M76.4775 24.9063C76.4566 24.1971 76.6029 23.5082 76.9164 22.8801C77.1881 22.2317 77.6061 21.6644 78.1285 21.1781C78.651 20.6918 79.2571 20.3068 79.9258 20.0637C81.3051 19.5369 82.8307 19.5369 84.21 20.0637C84.8997 20.3271 85.5057 20.7323 86.0073 21.2389C86.5298 21.7252 86.9477 22.3128 87.2194 22.9611C87.7837 24.2579 87.8046 25.7168 87.2403 27.0135C86.9686 27.6619 86.5507 28.2293 86.0282 28.7155C84.9624 29.7286 83.5204 30.296 82.0157 30.2757C81.2842 30.2757 80.5737 30.1542 79.884 29.8907C79.2153 29.6273 78.5883 29.2424 78.0867 28.7358C77.5643 28.2495 77.1672 27.6619 76.8746 27.0135C76.6238 26.3449 76.4984 25.6357 76.4775 24.9063ZM85.234 24.9468C85.2549 24.0756 84.9415 23.2448 84.3145 22.6167C83.7502 22.0088 82.9352 21.6644 82.0784 21.6846C81.2215 21.6846 80.4274 22.0291 79.8422 22.6167C78.6092 23.9337 78.6092 25.9397 79.8422 27.2567C80.9916 28.4521 82.9352 28.5129 84.1682 27.3985C84.21 27.358 84.2727 27.3175 84.3145 27.2567C84.9415 26.6286 85.2549 25.7978 85.234 24.9468Z" fill="#007EA4"/>
  <path d="M90.1662 29.8503V13.7419H92.4859V24.0756L96.7492 19.9827H99.6124L95.0147 24.3187L100.072 29.83H97.0418L92.465 24.7442V29.83H90.1453V29.8503H90.1662Z" fill="#007EA4"/>
  <path d="M100.302 24.9063C100.281 24.1971 100.428 23.5082 100.741 22.8801C101.013 22.2317 101.431 21.6644 101.953 21.1781C102.476 20.6918 103.082 20.3068 103.751 20.0637C105.13 19.5369 106.655 19.5369 108.035 20.0637C108.724 20.3271 109.33 20.7323 109.832 21.2389C110.354 21.7252 110.772 22.3128 111.044 22.9611C111.608 24.2579 111.629 25.7168 111.065 27.0135C110.793 27.6619 110.375 28.2293 109.853 28.7155C108.787 29.7286 107.345 30.296 105.84 30.2757C105.109 30.2757 104.398 30.1542 103.709 29.8907C103.04 29.6273 102.413 29.2424 101.911 28.7358C101.389 28.2495 100.992 27.6619 100.699 27.0135C100.449 26.3449 100.302 25.6357 100.302 24.9063ZM109.038 24.9468C109.059 24.0756 108.745 23.2448 108.118 22.6167C107.554 22.0088 106.739 21.6644 105.882 21.6846C105.025 21.6846 104.231 22.0291 103.646 22.6167C102.434 23.9337 102.434 25.9397 103.646 27.2567C104.795 28.4521 106.739 28.5129 107.972 27.3985C108.014 27.358 108.077 27.3175 108.118 27.2567C108.745 26.6286 109.08 25.7978 109.038 24.9468Z" fill="#007EA4"/>
  <path d="M121.556 22.7991C121.222 22.4141 120.804 22.1304 120.323 21.948C119.842 21.7454 119.32 21.6239 118.797 21.6441C117.857 21.6441 117.063 21.9278 116.499 22.5356C115.934 23.1435 115.642 23.9135 115.642 24.9063C115.642 25.8992 115.934 26.7299 116.499 27.3378C117.063 27.9456 117.878 28.2293 118.902 28.2293C119.424 28.2496 119.947 28.128 120.407 27.9254C120.866 27.7025 121.263 27.3783 121.556 26.9933V29.6071C121.117 29.8503 120.657 30.0124 120.177 30.1339C119.675 30.2555 119.132 30.3163 118.609 30.3163C117.021 30.3163 115.725 29.8097 114.701 28.8372C113.677 27.8646 113.218 26.5678 113.218 24.9874C113.218 23.4069 113.74 22.1101 114.785 21.1578C115.83 20.2055 117.188 19.699 118.86 19.699C119.362 19.699 119.842 19.7395 120.323 19.8611C120.762 19.9624 121.18 20.1245 121.556 20.3271V22.7991ZM126.258 21.5428C126.446 20.9755 126.781 20.4892 127.261 20.1042C127.7 19.78 128.244 19.6179 128.787 19.6382C129.121 19.6382 129.435 19.6787 129.748 19.7395C130.083 19.8205 130.396 19.9421 130.689 20.0839L129.853 21.9886C129.665 21.8467 129.435 21.7454 129.205 21.6846C128.954 21.6036 128.682 21.5631 128.432 21.5833C127.658 21.5833 127.115 21.867 126.76 22.4749C126.405 23.0827 126.237 24.0958 126.237 25.5142V29.8503H123.918V19.9826H126.237V21.5428H126.258Z" fill="#1AA64A"/>
  <path d="M133.782 34.47H131.378L134.179 28.979L130.438 19.9624H133.029L134.889 25.0482L135.182 25.9802C135.266 26.3044 135.328 26.6286 135.37 26.9731C135.558 26.4057 135.767 25.8587 136.039 25.3319L136.102 25.2103L138.609 19.9624H141.138L133.782 34.47ZM142.371 34.47V19.9827H144.691V21.6036C144.942 20.9958 145.401 20.4892 145.987 20.165C146.634 19.8003 147.366 19.6382 148.118 19.6382C149.393 19.5977 150.605 20.1448 151.399 21.0971C152.235 22.0697 152.653 23.3462 152.653 24.9064C152.653 26.5476 152.256 27.8646 151.42 28.8169C150.584 29.7692 149.456 30.2353 148.035 30.2353C146.676 30.2961 145.401 29.6477 144.67 28.5535V34.47H142.371ZM144.628 24.8861C144.628 25.8992 144.9 26.7097 145.401 27.3378C145.903 27.9254 146.676 28.2698 147.47 28.2496C148.348 28.2496 149.038 27.9659 149.518 27.3986C149.999 26.8312 150.25 26.0208 150.25 24.9671C150.25 23.9135 149.999 23.1233 149.498 22.5357C148.975 21.9481 148.223 21.6239 147.429 21.6442C146.551 21.6442 145.861 21.9278 145.381 22.5154C144.9 23.103 144.628 23.873 144.628 24.8861ZM155.704 29.8503V21.9684H153.928V19.9827H155.704V16.2545H158.024V19.9827H159.801V21.9684H158.024V29.8503H155.704ZM161.075 24.9064C161.055 24.1972 161.222 23.5083 161.514 22.8801C162.079 21.5834 163.165 20.5703 164.503 20.0637C165.882 19.5369 167.408 19.5369 168.787 20.0637C169.477 20.3271 170.083 20.7324 170.584 21.2389C171.107 21.7252 171.525 22.3128 171.796 22.9612C172.361 24.258 172.382 25.7168 171.817 27.0136C171.546 27.662 171.128 28.2293 170.605 28.7156C169.539 29.7287 168.097 30.2758 166.593 30.2758C165.861 30.2758 165.151 30.1542 164.461 29.8908C163.792 29.6274 163.165 29.2424 162.664 28.7359C162.141 28.2496 161.744 27.662 161.452 27.0136C161.201 26.3247 161.055 25.6155 161.075 24.9064ZM169.832 24.9469C169.853 24.0756 169.518 23.2449 168.892 22.6167C168.327 22.0089 167.512 21.6644 166.655 21.6847C165.799 21.6847 165.004 22.0291 164.419 22.6167C163.207 23.9338 163.207 25.9397 164.419 27.2567C165.569 28.4522 167.512 28.513 168.745 27.3986C168.787 27.3581 168.85 27.3175 168.892 27.2567C169.498 26.6286 169.832 25.7979 169.832 24.9469Z" fill="#1AA64A"/>
</svg>